<svg id="Layer_1" xmlns="http://www.w3.org/2000/svg" viewBox="0 0 506 506"><style>.st0{fill:#0072c5}</style><path class="st0" d="M426.9 320.5l-48.8-38.4v27.2H65V127.8h289v67h22.5v-74.6c-.1-8-6.9-14.6-14.6-14.9-102.7-1.3-205.5 0-308.2 0-6.1.3-10.9 5.2-11.3 11.3v204c.5 9.1 11.3 11.3 11.3 11.3h123.8v10.8c0 19.9-16.1 36-36 36h-35.2v18.8h206.3v-18.8h-35.2c-19.9 0-36-16.1-36-36v-10.8h136.9v27.2l48.6-38.6z"/><path class="st0" d="M458.8 208H241.1c-4.4-12.7-16.5-21.7-30.6-21.7-17.9 0-32.4 14.5-32.4 32.4s14.5 32.4 32.4 32.4c13.7 0 25.5-8.6 30.2-20.6h206.8v181.9h-93.8v-71.3h-22.5v93.8c.3 6.2 5.2 11 11.3 11.3h116.3c6.1-.3 11-5.2 11.3-11.3V219.3c-.4-6.1-5.3-11-11.3-11.3zm-45 225h-26.3v-7.5h26.3v7.5z"/></svg>