<?xml version="1.0" encoding="UTF-8" standalone="no"?>
<!DOCTYPE svg PUBLIC "-//W3C//DTD SVG 1.1//EN" "http://www.w3.org/Graphics/SVG/1.1/DTD/svg11.dtd">
<svg xmlns="http://www.w3.org/2000/svg" xmlns:xlink="http://www.w3.org/1999/xlink" version="1.1" width="96pt" height="96pt" viewBox="0 0 96 96">
<g enable-background="new">
<g>
<g id="Layer-1" data-name="Layer">
<clipPath id="cp0">
<path transform="matrix(1,0,0,-1,0,96)" d="M 0 96 L 96 96 L 96 0 L 0 0 Z "/>
</clipPath>
<g clip-path="url(#cp0)">
<path transform="matrix(1,0,0,-1,69.2905,26.8311)" d="M 0 0 L -42.581 0 C -46.405 0 -49.533 -3.128 -49.533 -6.952 L -49.533 -29.329 C -49.533 -33.152 -46.405 -36.281 -42.581 -36.281 L -41.712 -36.281 L -41.712 -33.979 L -42.581 -33.979 C -45.145 -33.979 -47.23 -31.893 -47.23 -29.329 L -47.23 -6.952 C -47.23 -4.389 -45.145 -2.303 -42.581 -2.303 L 0 -2.303 C 2.564 -2.303 4.649 -4.389 4.649 -6.952 L 4.649 -29.329 C 4.649 -31.893 2.564 -33.979 0 -33.979 L -.869 -33.979 L -.869 -36.281 L 0 -36.281 C 3.824 -36.281 6.952 -33.152 6.952 -29.329 L 6.952 -6.952 C 6.952 -3.128 3.824 0 0 0 " fill="#5c005c"/>
<path transform="matrix(1,0,0,-1,45.3232,56.5947)" d="M 0 0 L -3.919 -3.919 C -4.597 -4.597 -5.692 -4.597 -6.37 -3.919 L -10.289 0 C -10.976 .678 -10.976 1.773 -10.289 2.46 L -6.37 6.379 C -5.692 7.057 -4.597 7.057 -3.919 6.379 L 0 2.46 C .687 1.773 .687 .678 0 0 M 7.517 2.764 L -3.606 13.887 C -4.458 14.738 -5.831 14.738 -6.683 13.887 L -17.806 2.764 C -18.657 1.912 -18.657 .539 -17.806 -.312 L -6.683 -11.436 C -5.831 -12.287 -4.458 -12.287 -3.606 -11.436 L 7.517 -.312 C 8.369 .539 8.369 1.912 7.517 2.764 " fill="#5c005c"/>
<path transform="matrix(1,0,0,-1,55.1421,53.2461)" d="M 0 0 L -5.02 5.021 C -5.395 5.396 -5.395 6.003 -5.02 6.378 L 0 11.397 C .375 11.772 .983 11.772 1.358 11.397 L 6.377 6.378 C 6.752 6.003 6.752 5.396 6.377 5.021 L 1.358 0 C .983 -.375 .375 -.375 0 0 " fill="#5c005c"/>
<path transform="matrix(1,0,0,-1,62.9634,61.0664)" d="M 0 0 L -5.02 5.02 C -5.395 5.395 -5.395 6.002 -5.02 6.377 L 0 11.396 C .375 11.771 .983 11.771 1.357 11.396 L 6.377 6.377 C 6.752 6.002 6.752 5.395 6.377 5.02 L 1.357 0 C .983 -.375 .375 -.375 0 0 " fill="#5c005c"/>
<path transform="matrix(1,0,0,-1,55.1421,68.887699)" d="M 0 0 L -5.02 5.02 C -5.395 5.395 -5.395 6.002 -5.02 6.377 L 0 11.397 C .375 11.772 .983 11.772 1.358 11.397 L 6.377 6.377 C 6.752 6.002 6.752 5.395 6.377 5.02 L 1.358 0 C .983 -.375 .375 -.375 0 0 " fill="#5c005c"/>
</g>
<g id="Layer-1" data-name="Layer">
<g id="Layer-2" data-name="AltAI8">
</g>
</g>
</g>
</g>
</g>
</svg>
