<?xml version="1.0" encoding="UTF-8" standalone="no"?>
<!DOCTYPE svg PUBLIC "-//W3C//DTD SVG 1.1//EN" "http://www.w3.org/Graphics/SVG/1.1/DTD/svg11.dtd">
<svg xmlns="http://www.w3.org/2000/svg" xmlns:xlink="http://www.w3.org/1999/xlink" version="1.1" width="96pt" height="96pt" viewBox="0 0 96 96">
<g enable-background="new">
<g>
<g id="Layer-1" data-name="Layer">
<g id="Layer-2" data-name="AltAI8">
</g>
</g>
<g id="Layer-1" data-name="Layer">
<clipPath id="cp0">
<path transform="matrix(1,0,0,-1,0,96)" d="M 0 96 L 96 96 L 96 0 L 0 0 Z "/>
</clipPath>
<g clip-path="url(#cp0)">
<path transform="matrix(1,0,0,-1,44.0791,69.207)" d="M 0 0 L 0 0 C -1.692 0 -3.063 1.371 -3.063 3.063 L -3.063 21.51 C -3.063 23.202 -1.692 24.573 0 24.573 C 1.692 24.573 3.063 23.202 3.063 21.51 L 3.063 3.063 C 3.063 1.371 1.692 0 0 0 " fill="#ffb900"/>
<path transform="matrix(1,0,0,-1,52.7637,69.207)" d="M 0 0 L 0 0 C -1.691 0 -3.063 1.371 -3.063 3.063 L -3.063 16.528 C -3.063 18.22 -1.691 19.591 0 19.591 C 1.692 19.591 3.063 18.22 3.063 16.528 L 3.063 3.063 C 3.063 1.371 1.692 0 0 0 " fill="#ffb900"/>
<path transform="matrix(1,0,0,-1,61.6509,69.207)" d="M 0 0 L 0 0 C -1.692 0 -3.063 1.371 -3.063 3.063 L -3.063 30.398 C -3.063 32.091 -1.692 33.462 0 33.462 C 1.692 33.462 3.063 32.091 3.063 30.398 L 3.063 3.063 C 3.063 1.371 1.692 0 0 0 " fill="#ffb900"/>
<path transform="matrix(1,0,0,-1,35.1924,69.207)" d="M 0 0 L 0 0 C -1.692 0 -3.063 1.371 -3.063 3.063 L -3.063 11.411 C -3.063 13.104 -1.692 14.475 0 14.475 C 1.691 14.475 3.063 13.104 3.063 11.411 L 3.063 3.063 C 3.063 1.371 1.691 0 0 0 " fill="#ffb900"/>
<path transform="matrix(1,0,0,-1,69.082,26.793)" d="M 0 0 L -42.164 0 C -46.066 0 -49.241 -3.175 -49.241 -7.077 L -49.241 -31.836 C -49.241 -35.738 -46.066 -38.913 -42.164 -38.913 L -40.319 -38.913 L -40.319 -36.221 L -42.164 -36.221 C -44.58 -36.221 -46.548 -34.255 -46.548 -31.836 L -46.548 -7.077 C -46.548 -4.658 -44.58 -2.692 -42.164 -2.692 L 0 -2.692 C 2.418 -2.692 4.384 -4.658 4.384 -7.077 L 4.384 -31.836 C 4.384 -34.255 2.418 -36.221 0 -36.221 L -1.742 -36.221 L -1.742 -38.913 L 0 -38.913 C 3.902 -38.913 7.077 -35.738 7.077 -31.836 L 7.077 -7.077 C 7.077 -3.175 3.902 0 0 0 " fill="#ffb900"/>
</g>
<g id="Layer-1" data-name="Layer">
<g id="Layer-2" data-name="AltAI8">
</g>
</g>
</g>
</g>
</g>
</svg>
